<mxfile host="65bd71144e">
    <diagram id="LIIJIWpPd13v7hZqTft3" name="ページ1">
        <mxGraphModel dx="1755" dy="1198" grid="1" gridSize="10" guides="1" tooltips="1" connect="1" arrows="1" fold="1" page="1" pageScale="1" pageWidth="827" pageHeight="1169" math="0" shadow="0">
            <root>
                <mxCell id="0"/>
                <mxCell id="1" parent="0"/>
                <mxCell id="2" value="" style="rounded=0;whiteSpace=wrap;html=1;" vertex="1" parent="1">
                    <mxGeometry x="80" y="80" width="1600" height="900" as="geometry"/>
                </mxCell>
                <mxCell id="3" value="" style="rounded=1;whiteSpace=wrap;html=1;" vertex="1" parent="1">
                    <mxGeometry x="90" y="890" width="1580" height="80" as="geometry"/>
                </mxCell>
                <mxCell id="6" style="edgeStyle=none;html=1;" edge="1" parent="1" source="4" target="3">
                    <mxGeometry relative="1" as="geometry"/>
                </mxCell>
                <mxCell id="4" value="&lt;blockquote style=&quot;margin: 0px 0px 0px 40px; border: none; padding: 0px; font-size: 18px;&quot;&gt;&lt;div style=&quot;font-size: 18px;&quot;&gt;&lt;span style=&quot;font-size: 18px; background-color: initial;&quot;&gt;ショップ&lt;/span&gt;&lt;/div&gt;&lt;/blockquote&gt;" style="rounded=1;whiteSpace=wrap;html=1;align=center;fontSize=18;" vertex="1" parent="1">
                    <mxGeometry x="100" y="900" width="186.25" height="60" as="geometry"/>
                </mxCell>
                <mxCell id="7" value="&lt;blockquote style=&quot;margin: 0px 0px 0px 40px; border: none; padding: 0px; font-size: 18px;&quot;&gt;&lt;span style=&quot;font-size: 18px;&quot;&gt;書庫&lt;/span&gt;&lt;/blockquote&gt;" style="rounded=1;whiteSpace=wrap;html=1;fontSize=18;" vertex="1" parent="1">
                    <mxGeometry x="296.25" y="900" width="186.25" height="60" as="geometry"/>
                </mxCell>
                <mxCell id="8" value="&lt;blockquote style=&quot;margin: 0px 0px 0px 40px; border: none; padding: 0px; font-size: 18px;&quot;&gt;&lt;span style=&quot;font-size: 18px;&quot;&gt;倉庫&lt;/span&gt;&lt;/blockquote&gt;" style="rounded=1;whiteSpace=wrap;html=1;fontSize=18;" vertex="1" parent="1">
                    <mxGeometry x="490" y="900" width="186.25" height="60" as="geometry"/>
                </mxCell>
                <mxCell id="9" value="&lt;blockquote style=&quot;margin: 0px 0px 0px 40px; border: none; padding: 0px; font-size: 18px;&quot;&gt;&lt;span style=&quot;font-size: 18px;&quot;&gt;プロフィール&lt;/span&gt;&lt;/blockquote&gt;" style="rounded=1;whiteSpace=wrap;html=1;fontSize=18;" vertex="1" parent="1">
                    <mxGeometry x="690" y="900" width="186.25" height="60" as="geometry"/>
                </mxCell>
                <mxCell id="10" value="&lt;blockquote style=&quot;margin: 0px 0px 0px 40px; border: none; padding: 0px; font-size: 18px;&quot;&gt;&lt;font style=&quot;font-size: 18px;&quot;&gt;研究&lt;/font&gt;&lt;/blockquote&gt;" style="rounded=1;whiteSpace=wrap;html=1;fontSize=18;" vertex="1" parent="1">
                    <mxGeometry x="890" y="900" width="186.25" height="60" as="geometry"/>
                </mxCell>
                <mxCell id="11" value="&lt;blockquote style=&quot;margin: 0px 0px 0px 40px; border: none; padding: 0px; font-size: 18px;&quot;&gt;&lt;font style=&quot;font-size: 18px;&quot;&gt;任務&lt;/font&gt;&lt;/blockquote&gt;" style="rounded=1;whiteSpace=wrap;html=1;fontSize=18;" vertex="1" parent="1">
                    <mxGeometry x="1090" y="900" width="186.25" height="60" as="geometry"/>
                </mxCell>
                <mxCell id="12" value="&lt;blockquote style=&quot;margin: 0px 0px 0px 40px; border: none; padding: 0px; font-size: 18px;&quot;&gt;&lt;span style=&quot;font-size: 18px;&quot;&gt;クエリを投げる&lt;/span&gt;&lt;/blockquote&gt;" style="rounded=1;whiteSpace=wrap;html=1;fontSize=18;" vertex="1" parent="1">
                    <mxGeometry x="1283.75" y="900" width="186.25" height="60" as="geometry"/>
                </mxCell>
                <mxCell id="13" value="&lt;blockquote style=&quot;margin: 0px 0px 0px 40px; border: none; padding: 0px; font-size: 18px;&quot;&gt;&lt;font style=&quot;font-size: 18px;&quot;&gt;SLACK&lt;/font&gt;&lt;/blockquote&gt;" style="rounded=1;whiteSpace=wrap;html=1;fontSize=18;" vertex="1" parent="1">
                    <mxGeometry x="1476.875" y="900" width="186.25" height="60" as="geometry"/>
                </mxCell>
                <mxCell id="14" value="&lt;div style=&quot;font-size: 24px;&quot;&gt;&lt;span style=&quot;background-color: initial; font-size: 24px;&quot;&gt;本編&lt;/span&gt;&lt;/div&gt;" style="rounded=1;whiteSpace=wrap;html=1;fontSize=24;align=left;verticalAlign=middle;horizontal=1;spacingTop=100;spacingLeft=10;" vertex="1" parent="1">
                    <mxGeometry x="1470" y="600" width="200" height="200" as="geometry"/>
                </mxCell>
                <mxCell id="15" value="プ&lt;br style=&quot;font-size: 24px;&quot;&gt;ロ&lt;br style=&quot;font-size: 24px;&quot;&gt;ッ&lt;br style=&quot;font-size: 24px;&quot;&gt;ト" style="rounded=1;whiteSpace=wrap;html=1;fontSize=24;horizontal=1;align=right;verticalAlign=top;spacingTop=10;spacingRight=10;" vertex="1" parent="1">
                    <mxGeometry x="1350" y="600" width="100" height="200" as="geometry"/>
                </mxCell>
                <mxCell id="16" value="slider" style="rounded=0;whiteSpace=wrap;html=1;fontSize=50;" vertex="1" parent="1">
                    <mxGeometry x="90" y="680" width="320" height="180" as="geometry"/>
                </mxCell>
                <mxCell id="17" value="icon" style="rounded=1;whiteSpace=wrap;html=1;fontSize=24;" vertex="1" parent="1">
                    <mxGeometry x="90" y="90" width="100" height="100" as="geometry"/>
                </mxCell>
                <mxCell id="18" value="user name" style="rounded=1;whiteSpace=wrap;html=1;fontSize=24;" vertex="1" parent="1">
                    <mxGeometry x="190" y="100" width="220" height="60" as="geometry"/>
                </mxCell>
            </root>
        </mxGraphModel>
    </diagram>
</mxfile>